<svg xmlns="http://www.w3.org/2000/svg" xmlns:xlink="http://www.w3.org/1999/xlink" width="12" height="12" viewBox="0 0 12 12" fill="none">
<path   fill-rule="evenodd"  fill="#872A2A"  d="M2.33308 12L11.3331 12C11.7014 12 11.9998 11.7313 11.9998 11.4L11.9998 0.600022C11.9998 0.268702 11.7014 2.20703e-05 11.3331 2.20703e-05L1.99984 2.20703e-05C0.89524 2.20703e-05 -0.0002 0.805943 -0.0002 1.80002L-0.0002 9.90003C-0.0002 11.0598 1.04452 12 2.33308 12ZM1.3333 1.80015L1.3333 8.00233C1.64578 7.8688 1.98738 7.79969 2.33327 7.8001L10.6666 7.8001L10.6666 1.20012L1.99998 1.20012C1.63178 1.20012 1.3333 1.46874 1.3333 1.80015ZM10.6666 9.00003L2.33327 9.00003C1.78102 9.00003 1.3333 9.40298 1.3333 9.90003C1.3333 10.3971 1.78102 10.8 2.33327 10.8L10.6666 10.8L10.6666 9.00003Z">
</path>
</svg>
