<svg xmlns="http://www.w3.org/2000/svg" xmlns:xlink="http://www.w3.org/1999/xlink" width="12" height="12.0001220703125" viewBox="0 0 12 12.0001220703125" fill="none">
<path   fill-rule="evenodd"  fill="#512A87"  d="M2.9999 5.68421C4.49106 5.68421 5.6999 4.41175 5.6999 2.84211C5.6999 1.27247 4.49106 0 2.9999 0C2.0353 0 1.14392 0.541706 0.661646 1.42105C0.179318 2.3004 0.179318 3.38381 0.661646 4.26316C1.14392 5.14251 2.0353 5.68421 2.9999 5.68421ZM4.5001 2.84215C4.5001 3.71417 3.82852 4.4211 3.0001 4.4211C2.17168 4.4211 1.5001 3.71417 1.5001 2.84215C1.5001 1.97013 2.17168 1.2632 3.0001 1.2632C3.82852 1.2632 4.5001 1.97013 4.5001 2.84215ZM9.3 3.1579C10.6255 3.1579 11.7 4.28898 11.7 5.68422C11.7 7.07945 10.6255 8.21054 9.3 8.21054C7.97453 8.21054 6.9 7.07945 6.9 5.68422C6.9 4.28898 7.97453 3.1579 9.3 3.1579ZM9.3002 4.4211C9.96294 4.4211 10.5002 4.98664 10.5002 5.68426C10.5002 6.38188 9.96294 6.94742 9.3002 6.94742C8.63747 6.94742 8.1002 6.38188 8.1002 5.68426C8.1002 4.98664 8.63747 4.4211 9.3002 4.4211ZM1.2001 9.47373L1.2001 12L0.0001 12L0.0001 9.47373C0.0001 7.72964 1.34326 6.3158 3.0001 6.3158C4.65694 6.3158 6.0001 7.72964 6.0001 9.47373L6.0001 12L4.8001 12L4.8001 9.47373C4.8001 8.42726 3.99424 7.57895 3.0001 7.57895C2.00596 7.57895 1.2001 8.42726 1.2001 9.47373ZM10.8002 11.6843C10.8002 10.8123 10.1286 10.1054 9.3002 10.1054C8.47179 10.1054 7.80019 10.8123 7.80019 11.6843L7.80019 12.0001L6.6002 12.0001L6.6002 11.6843C6.6002 10.6689 7.11482 9.73068 7.9502 9.22299C8.78558 8.71529 9.81482 8.71529 10.6502 9.22299C11.4856 9.73068 12.0002 10.6689 12.0002 11.6843L12.0002 12.0001L10.8002 12.0001L10.8002 11.6843Z">
</path>
</svg>
